<svg xmlns="http://www.w3.org/2000/svg" version="1.1" xmlns:xlink="http://www.w3.org/1999/xlink" xmlns:svgjs="http://svgjs.dev/svgjs" width="3000" height="1000" preserveAspectRatio="none" viewBox="0 0 3000 1000">
  <g mask="url(&quot;#SvgjsMask1227&quot;)" fill="none">
    <path d="M939.393,546.402C987.052,546.311,1037.379,533.227,1061.162,491.926C1084.909,450.687,1071.901,400.05,1047.034,359.476C1023.439,320.977,984.539,292.371,939.393,293.238C895.534,294.08,861.677,326.12,838.683,363.478C814.197,403.261,794.284,451.47,816.814,492.393C839.894,534.315,891.537,546.494,939.393,546.402" fill="rgba(28, 142, 106, 0.4)" class="triangle-float2" id="triangle-float1"></path>
    <path d="M1935.696,752.394C2036.531,747.575,2112.277,671.987,2163.21,584.828C2214.735,496.655,2250.919,389.398,2199.319,301.269C2148.094,213.779,2037.003,192.318,1935.696,196.244C1842.24,199.866,1756.285,242.051,1705.236,320.416C1648.561,407.417,1618.242,516.926,1667.116,608.537C1718.353,704.576,1826.968,757.59,1935.696,752.394" fill="rgba(28, 142, 106, 0.4)" class="triangle-float3" id="triangle-float2"></path>
    <path d="M908.37,1062.285C1009.196,1064.431,1087.403,980.935,1132.559,890.76C1172.892,810.216,1166.527,716.28,1120.374,638.924C1075.423,563.584,996.088,513.49,908.37,515.007C823.057,516.482,750.846,571.854,708.697,646.043C667.107,719.25,663.71,805.641,700.126,881.554C742.733,970.373,809.882,1060.188,908.37,1062.285" fill="rgba(28, 142, 106, 0.4)" class="triangle-float3" id="triangle-float3"></path>
    <path d="M328.61,606.839C386.544,604.136,442.322,582.042,473.133,532.906C505.977,480.529,516.384,412.381,483.295,360.158C451.88,310.578,387.302,305.445,328.61,304.812C268.318,304.161,202.61,307.36,168.033,356.756C128.891,412.674,121.796,490.143,158.675,547.578C193.416,601.683,264.382,609.836,328.61,606.839" fill="rgba(28, 142, 106, 0.4)" class="triangle-float3" id="triangle-float4"></path>
    <path d="M45.534,715.667C103.443,718.943,166.063,704.593,196.119,654.986C227.012,603.998,214.321,539.411,183.098,488.624C153.455,440.407,102.109,408.365,45.534,410.043C-8.459,411.645,-52.946,448.841,-78.583,496.387C-102.844,541.381,-103.353,594.982,-78.173,639.468C-52.604,684.642,-6.291,712.735,45.534,715.667" fill="rgba(28, 142, 106, 0.4)" class="triangle-float2" id="triangle-float5"></path>
    <path d="M2827.442,371.309C2851.779,370.266,2868.256,350.09,2881.332,329.538C2895.899,306.643,2912.692,280.469,2900.741,256.106C2887.863,229.852,2856.664,218.58,2827.442,219.677C2800.087,220.704,2776.184,237.231,2763.094,261.273C2750.576,284.265,2751.696,311.929,2764.911,334.527C2777.995,356.9,2801.548,372.419,2827.442,371.309" fill="rgba(28, 142, 106, 0.4)" class="triangle-float1" id="triangle-float6"></path>
    <path d="M1162.291,835.223C1234.698,835.788,1276.738,760.922,1310.291,696.756C1340.644,638.71,1360.944,572.214,1330.014,514.474C1297.578,453.923,1230.925,423.279,1162.291,420.472C1087.718,417.422,1003.727,433.647,968.996,499.709C935.596,563.238,982.407,632.287,1018.236,694.478C1054.154,756.824,1090.341,834.662,1162.291,835.223" fill="rgba(28, 142, 106, 0.4)" class="triangle-float2" id="triangle-float7"></path>
    <path d="M1445.932,614.332C1505.324,612.225,1563.633,593.381,1596.665,543.977C1633.822,488.403,1650.266,416.169,1617.316,358.002C1584.002,299.192,1513.48,275.493,1445.932,277.886C1382.709,280.126,1327.477,315.538,1294.362,369.442C1259.412,426.333,1240.322,498.598,1275.461,555.372C1309.376,610.169,1381.53,616.617,1445.932,614.332" fill="rgba(28, 142, 106, 0.4)" class="triangle-float2" id="triangle-float8"></path>
    <path d="M963.925,661.785C997.552,661.721,1028.517,645.632,1047.002,617.541C1067.722,586.055,1080.931,545.544,1061.781,513.079C1042.831,480.953,1001.223,476.449,963.925,476.698C927.21,476.944,887.024,482.784,868.31,514.373C849.34,546.395,860.044,586.632,880.298,617.858C898.663,646.172,930.177,661.849,963.925,661.785" fill="rgba(28, 142, 106, 0.4)" class="triangle-float3" id="triangle-float9"></path>
    <path d="M2721.863,288.158C2749.015,287.822,2779.049,284.758,2793.032,261.481C2807.305,237.722,2797.674,208.621,2784.189,184.407C2770.221,159.326,2750.567,133.222,2721.863,133.69C2693.631,134.15,2677.002,161.887,2662.96,186.384C2649.026,210.691,2633.542,239.032,2647.576,263.281C2661.596,287.505,2693.876,288.504,2721.863,288.158" fill="rgba(28, 142, 106, 0.4)" class="triangle-float2" id="triangle-float10"></path>
    <path d="M1569.964,528.264C1606.062,530.815,1644.886,518.375,1662.318,486.662C1679.311,455.748,1666.189,418.415,1646.4,389.211C1629.217,363.854,1600.586,351.111,1569.964,350.374C1537.764,349.599,1503.024,357.503,1486.88,385.374C1470.707,413.295,1481.536,447.138,1497.755,475.032C1513.865,502.739,1537.994,526.005,1569.964,528.264" fill="rgba(28, 142, 106, 0.4)" class="triangle-float1" id="triangle-float11"></path>
    <path d="M2556.626,286.433C2630.081,283.228,2677.088,216.654,2712.764,152.364C2747.034,90.608,2774.497,17.981,2739.703,-43.481C2704.541,-105.593,2627.851,-128.061,2556.626,-123.446C2493.235,-119.339,2444.171,-76.014,2410.494,-22.152C2374.022,36.18,2345.516,104.927,2374.96,167.104C2408.195,237.285,2479.047,289.818,2556.626,286.433" fill="rgba(28, 142, 106, 0.4)" class="triangle-float1" id="triangle-float12"></path>
    <path d="M693.678,402.51C762.1,405.141,819.37,355.52,852.894,295.815C885.654,237.471,890.685,167.388,858.7,108.616C825.264,47.176,763.514,-0.725,693.678,3.254C628.562,6.964,587.266,67.294,558.299,125.731C533.126,176.515,529.443,233.417,554.348,284.334C583.027,342.967,628.455,400.002,693.678,402.51" fill="rgba(28, 142, 106, 0.4)" class="triangle-float2" id="triangle-float13"></path>
    <path d="M2689.015,668.322C2803.95,670.229,2910.177,607.371,2967.986,508.014C3026.134,408.074,3029.883,283.647,2970.586,184.385C2912.694,87.476,2801.636,33.318,2689.015,41.024C2587.662,47.959,2517.759,130.769,2467.113,218.835C2416.667,306.554,2380.835,408.281,2425.629,499.016C2475.148,599.322,2577.167,666.466,2689.015,668.322" fill="rgba(28, 142, 106, 0.4)" class="triangle-float2" id="triangle-float14"></path>
    <path d="M578.559,533.105C604.897,532.817,629.313,519.781,642.991,497.271C657.233,473.833,660.597,444.375,646.916,420.605C633.206,396.784,606.006,383.901,578.559,385.32C553.311,386.625,534.286,405.319,521.436,427.092C508.311,449.331,499.393,475.972,511.642,498.705C524.393,522.369,551.68,533.399,578.559,533.105" fill="rgba(28, 142, 106, 0.4)" class="triangle-float2" id="triangle-float15"></path>
    <path d="M963.913,331.821C1031.432,330.254,1099.149,310.524,1136.221,254.071C1177.063,191.877,1190.635,109.562,1151.373,46.358C1113.671,-14.333,1035.229,-27.655,963.913,-23.307C900.966,-19.469,846.769,14.247,812.266,67.035C773.467,126.397,741.924,200.867,777.168,262.406C812.542,324.172,892.754,333.473,963.913,331.821" fill="rgba(28, 142, 106, 0.4)" class="triangle-float2" id="triangle-float16"></path>
    <path d="M2322.045,1042.806C2409.9,1037.366,2487.028,993.546,2535.786,920.261C2591.522,836.489,2631.72,733.956,2587.742,643.457C2539.065,543.286,2433.365,477.017,2322.045,480.413C2215.527,483.663,2135.415,566.059,2083.018,658.856C2031.687,749.765,2001.775,861.281,2056.95,949.91C2109.988,1035.106,2221.881,1049.008,2322.045,1042.806" fill="rgba(28, 142, 106, 0.4)" class="triangle-float1" id="triangle-float17"></path>
    <path d="M1630.528,1259.5C1713.356,1253.849,1785.045,1206.128,1826.074,1133.954C1866.591,1062.681,1872.983,975.741,1832.302,904.562C1791.326,832.869,1713.041,795.056,1630.528,791.816C1541.187,788.308,1448.857,813.136,1399.304,887.558C1344.426,969.979,1330.298,1080.117,1382.576,1164.211C1432.68,1244.807,1535.847,1265.959,1630.528,1259.5" fill="rgba(28, 142, 106, 0.4)" class="triangle-float3" id="triangle-float18"></path>
    <path d="M1234.203,910.311C1295.789,915.783,1361.274,892.705,1391.88,838.982C1422.256,785.663,1406.436,719.185,1372.037,668.368C1341.743,623.614,1288.22,607.725,1234.203,606.046C1176.176,604.242,1108.819,608.531,1080.681,659.311C1052.985,709.293,1088.769,765.951,1118.585,814.699C1146.553,860.425,1180.812,905.567,1234.203,910.311" fill="rgba(28, 142, 106, 0.4)" class="triangle-float2" id="triangle-float19"></path>
    <path d="M598.987,1086.106C686.503,1089.286,782.763,1063.289,822.368,985.182C859.797,911.367,807.429,831.387,763.81,761.052C723.566,696.159,675.261,628.576,598.987,624.983C517.703,621.154,445.222,673.475,404.876,744.143C364.882,814.195,362.24,899.758,402.06,969.909C442.386,1040.952,517.351,1083.14,598.987,1086.106" fill="rgba(28, 142, 106, 0.4)" class="triangle-float2" id="triangle-float20"></path>
  </g>
  <defs>
    <mask id="SvgjsMask1227">
      <rect width="3000" height="1000" fill="#ffffff"></rect>
    </mask>
    <style>
        @keyframes float1 {
                    0%{transform: translate(0, 0)}
                    50%{transform: translate(-15px, 0)}
                    100%{transform: translate(0, 0)}
                }

                .triangle-float1 {
                    animation: float1 6s infinite;
                }

                @keyframes float2 {
                    0%{transform: translate(0, 0)}
                    50%{transform: translate(-10px, -10px)}
                    100%{transform: translate(0, 0)}
                }

                .triangle-float2 {
                    animation: float2 5s infinite;
                }

                @keyframes float3 {
                    0%{transform: translate(0, 0)}
                    50%{transform: translate(0, -15px)}
                    100%{transform: translate(0, 0)}
                }

                .triangle-float3 {
                    animation: float3 7s infinite;
                }
        
        #triangle-float1,  #triangle-float4,  #triangle-float7, #triangle-float20, #triangle-float16, #triangle-float2, , #triangle-float6, , #triangle-float10 {
        filter: blur(2px);
        }
        
        #triangle-float13,  #triangle-float8,  #triangle-float9, #triangle-float19,#triangle-float12 {
                filter: blur(4px);
}
                #triangle-float11{
                filter: blur(5px);
}
            </style></defs></svg>